<svg width="24" height="25" viewBox="0 0 24 25" fill="none" xmlns="http://www.w3.org/2000/svg">
<g id="Icon / Notification">
<path id="Vector" d="M5.26806 10.2501C5.26681 9.36096 5.44148 8.48035 5.78202 7.65901C6.12256 6.83766 6.62223 6.0918 7.25226 5.46438C7.88228 4.83697 8.63022 4.34041 9.45297 4.00329C10.2757 3.66617 11.1571 3.49516 12.0462 3.5001C15.7587 3.52823 18.7306 6.6126 18.7306 10.3345V11.0001C18.7306 14.3564 19.4337 16.3064 20.0524 17.3751C20.1182 17.4889 20.1528 17.618 20.1529 17.7494C20.153 17.8809 20.1186 18.01 20.0531 18.124C19.9876 18.2379 19.8933 18.3326 19.7796 18.3986C19.666 18.4647 19.537 18.4996 19.4056 18.5001H4.59306C4.46163 18.4996 4.33263 18.4647 4.21899 18.3986C4.10534 18.3326 4.01104 18.2379 3.94552 18.124C3.88001 18.01 3.84559 17.8809 3.8457 17.7494C3.84582 17.618 3.88047 17.4889 3.94619 17.3751C4.56494 16.3064 5.26806 14.3564 5.26806 11.0001V10.2501Z" stroke="#191C1A" stroke-width="2" stroke-linecap="round" stroke-linejoin="round"/>
<path id="Vector_2" d="M9 18.5V19.25C9 20.0456 9.31607 20.8087 9.87868 21.3713C10.4413 21.9339 11.2044 22.25 12 22.25C12.7956 22.25 13.5587 21.9339 14.1213 21.3713C14.6839 20.8087 15 20.0456 15 19.25V18.5" stroke="#191C1A" stroke-width="2" stroke-linecap="round" stroke-linejoin="round"/>
</g>
</svg>
