<svg width="16" height="16" viewBox="0 0 16 16" fill="none" xmlns="http://www.w3.org/2000/svg">
<g id="Icon / Broadcast">
<path id="Vector" d="M8.00006 10C9.10463 10 10.0001 9.10457 10.0001 8C10.0001 6.89543 9.10463 6 8.00006 6C6.89549 6 6.00006 6.89543 6.00006 8C6.00006 9.10457 6.89549 10 8.00006 10Z" stroke="black" stroke-width="0.98587" stroke-linecap="round" stroke-linejoin="round"/>
<path id="Vector_2" d="M4.81875 11.1809C4.40814 10.7707 4.08123 10.2846 3.85625 9.74961C3.62108 9.19615 3.49988 8.60096 3.49988 7.99961C3.49988 7.39826 3.62108 6.80307 3.85625 6.24961C4.08123 5.71463 4.40814 5.22852 4.81875 4.81836" stroke="black" stroke-width="0.98587" stroke-linecap="round" stroke-linejoin="round"/>
<path id="Vector_3" d="M11.1813 4.81836C11.5919 5.22852 11.9188 5.71463 12.1438 6.24961C12.3789 6.80307 12.5001 7.39826 12.5001 7.99961C12.5001 8.60096 12.3789 9.19615 12.1438 9.74961C11.9188 10.2846 11.5919 10.7707 11.1813 11.1809" stroke="black" stroke-width="0.98587" stroke-linecap="round" stroke-linejoin="round"/>
<path id="Vector_4" d="M3.04999 12.9508C2.41227 12.3119 1.90306 11.5566 1.54999 10.7258C1.18695 9.86316 0.999939 8.93669 0.999939 8.00078C0.999939 7.06488 1.18695 6.13841 1.54999 5.27578C1.90306 4.445 2.41227 3.68967 3.04999 3.05078" stroke="black" stroke-width="0.98587" stroke-linecap="round" stroke-linejoin="round"/>
<path id="Vector_5" d="M12.9501 3.05078C13.5878 3.68967 14.097 4.445 14.4501 5.27578C14.8131 6.13841 15.0001 7.06488 15.0001 8.00078C15.0001 8.93669 14.8131 9.86316 14.4501 10.7258C14.097 11.5566 13.5878 12.3119 12.9501 12.9508" stroke="black" stroke-width="0.98587" stroke-linecap="round" stroke-linejoin="round"/>
</g>
</svg>
