<svg width="13" height="13" viewBox="0 0 13 13" fill="none" xmlns="http://www.w3.org/2000/svg">
<path d="M5.25 10.25C5.41576 10.25 5.57473 10.1842 5.69194 10.0669C5.80915 9.94973 5.875 9.79076 5.875 9.625V5.875C5.875 5.70924 5.80915 5.55027 5.69194 5.43306C5.57473 5.31585 5.41576 5.25 5.25 5.25C5.08424 5.25 4.92527 5.31585 4.80806 5.43306C4.69085 5.55027 4.625 5.70924 4.625 5.875V9.625C4.625 9.79076 4.69085 9.94973 4.80806 10.0669C4.92527 10.1842 5.08424 10.25 5.25 10.25ZM11.5 2.75H9V2.125C9 1.62772 8.80246 1.15081 8.45083 0.799175C8.09919 0.447544 7.62228 0.25 7.125 0.25H5.875C5.37772 0.25 4.90081 0.447544 4.54917 0.799175C4.19754 1.15081 4 1.62772 4 2.125V2.75H1.5C1.33424 2.75 1.17527 2.81585 1.05806 2.93306C0.940848 3.05027 0.875 3.20924 0.875 3.375C0.875 3.54076 0.940848 3.69973 1.05806 3.81694C1.17527 3.93415 1.33424 4 1.5 4H2.125V10.875C2.125 11.3723 2.32254 11.8492 2.67417 12.2008C3.02581 12.5525 3.50272 12.75 4 12.75H9C9.49728 12.75 9.97419 12.5525 10.3258 12.2008C10.6775 11.8492 10.875 11.3723 10.875 10.875V4H11.5C11.6658 4 11.8247 3.93415 11.9419 3.81694C12.0592 3.69973 12.125 3.54076 12.125 3.375C12.125 3.20924 12.0592 3.05027 11.9419 2.93306C11.8247 2.81585 11.6658 2.75 11.5 2.75ZM5.25 2.125C5.25 1.95924 5.31585 1.80027 5.43306 1.68306C5.55027 1.56585 5.70924 1.5 5.875 1.5H7.125C7.29076 1.5 7.44973 1.56585 7.56694 1.68306C7.68415 1.80027 7.75 1.95924 7.75 2.125V2.75H5.25V2.125ZM9.625 10.875C9.625 11.0408 9.55915 11.1997 9.44194 11.3169C9.32473 11.4342 9.16576 11.5 9 11.5H4C3.83424 11.5 3.67527 11.4342 3.55806 11.3169C3.44085 11.1997 3.375 11.0408 3.375 10.875V4H9.625V10.875ZM7.75 10.25C7.91576 10.25 8.07473 10.1842 8.19194 10.0669C8.30915 9.94973 8.375 9.79076 8.375 9.625V5.875C8.375 5.70924 8.30915 5.55027 8.19194 5.43306C8.07473 5.31585 7.91576 5.25 7.75 5.25C7.58424 5.25 7.42527 5.31585 7.30806 5.43306C7.19085 5.55027 7.125 5.70924 7.125 5.875V9.625C7.125 9.79076 7.19085 9.94973 7.30806 10.0669C7.42527 10.1842 7.58424 10.25 7.75 10.25Z" fill="#D14141"/>
</svg>
