<svg width="16" height="16" viewBox="0 0 16 16" fill="none" xmlns="http://www.w3.org/2000/svg">
<path d="M8 14C11.3137 14 14 11.3137 14 8C14 4.68629 11.3137 2 8 2C4.68629 2 2 4.68629 2 8C2 11.3137 4.68629 14 8 14Z" stroke="black" stroke-miterlimit="10"/>
<path d="M2.34375 6H13.6562" stroke="black" stroke-linecap="round" stroke-linejoin="round"/>
<path d="M2.34375 10H13.6562" stroke="black" stroke-linecap="round" stroke-linejoin="round"/>
<path d="M8 13.8371C9.38071 13.8371 10.5 11.2236 10.5 7.99961C10.5 4.77565 9.38071 2.16211 8 2.16211C6.61929 2.16211 5.5 4.77565 5.5 7.99961C5.5 11.2236 6.61929 13.8371 8 13.8371Z" stroke="black" stroke-miterlimit="10"/>
</svg>
