<svg width="136" height="24" viewBox="0 0 136 24" fill="none" xmlns="http://www.w3.org/2000/svg">
<path d="M12.4125 17.8781L17.1375 20.8781C17.7469 21.2625 18.4969 20.6906 18.3187 19.9875L16.95 14.6063C16.913 14.4571 16.9189 14.3005 16.967 14.1546C17.0151 14.0086 17.1034 13.8792 17.2219 13.7813L21.4594 10.2469C22.0125 9.78752 21.7312 8.8594 21.0094 8.81252L15.4781 8.45627C15.3272 8.44749 15.1821 8.39494 15.0606 8.30503C14.939 8.21513 14.8463 8.09177 14.7937 7.95002L12.7312 2.75627C12.6767 2.60618 12.5772 2.47653 12.4464 2.38491C12.3156 2.29329 12.1597 2.24414 12 2.24414C11.8403 2.24414 11.6844 2.29329 11.5536 2.38491C11.4228 2.47653 11.3233 2.60618 11.2687 2.75627L9.20625 7.95002C9.15368 8.09177 9.06096 8.21513 8.93943 8.30503C8.81789 8.39494 8.67279 8.44749 8.52187 8.45627L2.99062 8.81252C2.26875 8.8594 1.9875 9.78752 2.54062 10.2469L6.77812 13.7813C6.89656 13.8792 6.98492 14.0086 7.03302 14.1546C7.08112 14.3005 7.08701 14.4571 7.05 14.6063L5.78437 19.5938C5.56875 20.4375 6.46875 21.1219 7.19062 20.6625L11.5875 17.8781C11.7108 17.7997 11.8539 17.7581 12 17.7581C12.1461 17.7581 12.2892 17.7997 12.4125 17.8781Z" fill="#FFC700" stroke="#A38109" stroke-linecap="round" stroke-linejoin="round"/>
<path d="M40.4125 17.8781L45.1375 20.8781C45.7469 21.2625 46.4969 20.6906 46.3187 19.9875L44.95 14.6063C44.913 14.4571 44.9189 14.3005 44.967 14.1546C45.0151 14.0086 45.1034 13.8792 45.2219 13.7813L49.4594 10.2469C50.0125 9.78752 49.7312 8.8594 49.0094 8.81252L43.4781 8.45627C43.3272 8.44749 43.1821 8.39494 43.0606 8.30503C42.939 8.21513 42.8463 8.09177 42.7937 7.95002L40.7312 2.75627C40.6767 2.60618 40.5772 2.47653 40.4464 2.38491C40.3156 2.29329 40.1597 2.24414 40 2.24414C39.8403 2.24414 39.6844 2.29329 39.5536 2.38491C39.4228 2.47653 39.3233 2.60618 39.2687 2.75627L37.2062 7.95002C37.1537 8.09177 37.061 8.21513 36.9394 8.30503C36.8179 8.39494 36.6728 8.44749 36.5219 8.45627L30.9906 8.81252C30.2687 8.8594 29.9875 9.78752 30.5406 10.2469L34.7781 13.7813C34.8966 13.8792 34.9849 14.0086 35.033 14.1546C35.0811 14.3005 35.087 14.4571 35.05 14.6063L33.7844 19.5938C33.5687 20.4375 34.4687 21.1219 35.1906 20.6625L39.5875 17.8781C39.7108 17.7997 39.8539 17.7581 40 17.7581C40.1461 17.7581 40.2892 17.7997 40.4125 17.8781Z" fill="#FFC700" stroke="#A38109" stroke-linecap="round" stroke-linejoin="round"/>
<path d="M68.4125 17.8781L73.1375 20.8781C73.7469 21.2625 74.4969 20.6906 74.3187 19.9875L72.95 14.6063C72.913 14.4571 72.9189 14.3005 72.967 14.1546C73.0151 14.0086 73.1034 13.8792 73.2219 13.7813L77.4594 10.2469C78.0125 9.78752 77.7312 8.8594 77.0094 8.81252L71.4781 8.45627C71.3272 8.44749 71.1821 8.39494 71.0606 8.30503C70.939 8.21513 70.8463 8.09177 70.7937 7.95002L68.7312 2.75627C68.6767 2.60618 68.5772 2.47653 68.4464 2.38491C68.3156 2.29329 68.1597 2.24414 68 2.24414C67.8403 2.24414 67.6844 2.29329 67.5536 2.38491C67.4228 2.47653 67.3233 2.60618 67.2687 2.75627L65.2062 7.95002C65.1537 8.09177 65.061 8.21513 64.9394 8.30503C64.8179 8.39494 64.6728 8.44749 64.5219 8.45627L58.9906 8.81252C58.2687 8.8594 57.9875 9.78752 58.5406 10.2469L62.7781 13.7813C62.8966 13.8792 62.9849 14.0086 63.033 14.1546C63.0811 14.3005 63.087 14.4571 63.05 14.6063L61.7844 19.5938C61.5687 20.4375 62.4687 21.1219 63.1906 20.6625L67.5875 17.8781C67.7108 17.7997 67.8539 17.7581 68 17.7581C68.1461 17.7581 68.2892 17.7997 68.4125 17.8781Z" fill="#FFC700" stroke="#A38109" stroke-linecap="round" stroke-linejoin="round"/>
<path d="M96.4125 17.8781L101.137 20.8781C101.747 21.2625 102.497 20.6906 102.319 19.9875L100.95 14.6063C100.913 14.4571 100.919 14.3005 100.967 14.1546C101.015 14.0086 101.103 13.8792 101.222 13.7813L105.459 10.2469C106.012 9.78752 105.731 8.8594 105.009 8.81252L99.4781 8.45627C99.3272 8.44749 99.1821 8.39494 99.0606 8.30503C98.939 8.21513 98.8463 8.09177 98.7937 7.95002L96.7312 2.75627C96.6767 2.60618 96.5772 2.47653 96.4464 2.38491C96.3156 2.29329 96.1597 2.24414 96 2.24414C95.8403 2.24414 95.6844 2.29329 95.5536 2.38491C95.4228 2.47653 95.3233 2.60618 95.2687 2.75627L93.2062 7.95002C93.1537 8.09177 93.061 8.21513 92.9394 8.30503C92.8179 8.39494 92.6728 8.44749 92.5219 8.45627L86.9906 8.81252C86.2687 8.8594 85.9875 9.78752 86.5406 10.2469L90.7781 13.7813C90.8966 13.8792 90.9849 14.0086 91.033 14.1546C91.0811 14.3005 91.087 14.4571 91.05 14.6063L89.7844 19.5938C89.5687 20.4375 90.4687 21.1219 91.1906 20.6625L95.5875 17.8781C95.7108 17.7997 95.8539 17.7581 96 17.7581C96.1461 17.7581 96.2892 17.7997 96.4125 17.8781Z" fill="#FFC700" stroke="#A38109" stroke-linecap="round" stroke-linejoin="round"/>
<path d="M124.412 17.8781L129.137 20.8781C129.747 21.2625 130.497 20.6906 130.319 19.9875L128.95 14.6063C128.913 14.4571 128.919 14.3005 128.967 14.1546C129.015 14.0086 129.103 13.8792 129.222 13.7813L133.459 10.2469C134.012 9.78752 133.731 8.8594 133.009 8.81252L127.478 8.45627C127.327 8.44749 127.182 8.39494 127.061 8.30503C126.939 8.21513 126.846 8.09177 126.794 7.95002L124.731 2.75627C124.677 2.60618 124.577 2.47653 124.446 2.38491C124.316 2.29329 124.16 2.24414 124 2.24414C123.84 2.24414 123.684 2.29329 123.554 2.38491C123.423 2.47653 123.323 2.60618 123.269 2.75627L121.206 7.95002C121.154 8.09177 121.061 8.21513 120.939 8.30503C120.818 8.39494 120.673 8.44749 120.522 8.45627L114.991 8.81252C114.269 8.8594 113.987 9.78752 114.541 10.2469L118.778 13.7813C118.897 13.8792 118.985 14.0086 119.033 14.1546C119.081 14.3005 119.087 14.4571 119.05 14.6063L117.784 19.5938C117.569 20.4375 118.469 21.1219 119.191 20.6625L123.587 17.8781C123.711 17.7997 123.854 17.7581 124 17.7581C124.146 17.7581 124.289 17.7997 124.412 17.8781Z" fill="#FFC700" stroke="#A38109" stroke-linecap="round" stroke-linejoin="round"/>
</svg>
