<svg width="24" height="24" viewBox="0 0 24 24" fill="none" xmlns="http://www.w3.org/2000/svg">
<g id="Icon / PaperPlaneRight">
<path id="Vector" d="M20.5782 11.3441L4.74384 2.47535C4.61046 2.40167 4.4578 2.37036 4.30618 2.38559C4.15457 2.40083 4.01119 2.46188 3.89514 2.56063C3.77908 2.65938 3.69586 2.79113 3.65655 2.93835C3.61724 3.08557 3.62371 3.24127 3.67509 3.38473L6.65634 11.7472C6.72201 11.9096 6.72201 12.0911 6.65634 12.2535L3.67509 20.616C3.62371 20.7594 3.61724 20.9151 3.65655 21.0624C3.69586 21.2096 3.77908 21.3413 3.89514 21.4401C4.01119 21.5388 4.15457 21.5999 4.30618 21.6151C4.4578 21.6303 4.61046 21.599 4.74384 21.5254L20.5782 12.6566C20.6954 12.5917 20.7932 12.4967 20.8612 12.3813C20.9292 12.2659 20.9651 12.1343 20.9651 12.0004C20.9651 11.8664 20.9292 11.7349 20.8612 11.6194C20.7932 11.504 20.6954 11.409 20.5782 11.3441V11.3441Z" stroke="#006D3D" stroke-width="2" stroke-linecap="round" stroke-linejoin="round"/>
<path id="Vector_2" d="M6.75 12H12.75" stroke="#006D3D" stroke-width="2" stroke-linecap="round" stroke-linejoin="round"/>
</g>
</svg>
