<svg width="931" height="201" viewBox="0 0 931 201" fill="none" xmlns="http://www.w3.org/2000/svg">
<rect width="201" height="201" rx="40.2" fill="#DDE5DC"/>
<path d="M91.9962 56.464C88.6341 59.8261 86.1738 63.2988 84.6153 66.8821C83.047 70.5876 82.3009 74.2584 82.3771 77.8943C82.5095 81.5865 83.4078 85.1877 85.0721 88.6978C86.7365 92.208 89.1153 95.5097 92.2087 98.6032L101.826 108.221C104.92 111.314 108.222 113.693 111.732 115.357C115.242 117.022 118.815 117.892 122.451 117.968C126.143 118.101 129.814 117.354 133.463 115.73C137.103 114.228 140.604 111.795 143.966 108.433C147.328 105.071 149.793 101.538 151.361 97.8321C152.92 94.2487 153.633 90.611 153.5 86.9188C153.424 83.2828 152.554 79.7098 150.89 76.1996C149.225 72.6895 146.846 69.3877 143.753 66.2943L134.135 56.6766C131.042 53.5832 127.74 51.2043 124.23 49.54C120.72 47.8757 117.119 46.9773 113.426 46.8449C109.791 46.7688 106.153 47.4819 102.513 48.9842C98.8639 50.6087 95.3582 53.102 91.9962 56.464ZM87.5248 51.9926C92.0734 47.444 96.9296 43.9939 102.093 41.6425C107.257 39.291 112.512 38.0856 117.858 38.0262C123.139 38.0328 128.36 39.167 133.522 41.4288C138.741 43.7469 143.712 47.2681 148.437 51.9926C153.161 56.7171 156.655 61.6606 158.916 66.823C161.234 72.0416 162.397 77.2911 162.403 82.5714C162.344 87.9177 161.139 93.1727 158.787 98.3364C156.436 103.5 152.986 108.356 148.437 112.905C143.888 117.453 139.032 120.904 133.869 123.255C128.705 125.606 123.483 126.779 118.202 126.772C112.856 126.832 107.574 125.702 102.355 123.384C97.1927 121.122 92.2493 117.629 87.5248 112.905C82.8003 108.18 79.279 103.209 76.961 97.9901C74.6991 92.8277 73.5979 87.5734 73.6573 82.2271C73.6507 76.9468 74.8231 71.7248 77.1746 66.5611C79.5261 61.3974 82.9761 56.5413 87.5248 51.9926Z" fill="white"/>
<path d="M59.0014 89.4586C55.3592 93.1008 52.6517 96.8207 50.8788 100.618C49.0908 104.544 48.1607 108.398 48.0886 112.183C48.0726 116.023 48.8584 119.737 50.4458 123.324C52.0332 126.911 54.3736 130.251 57.467 133.345L67.0847 142.962C70.1781 146.056 73.5183 148.396 77.1054 149.984C80.6924 151.571 84.3781 152.329 88.1624 152.256C92.0029 152.24 95.8577 151.31 99.7267 149.466C103.581 147.75 107.329 145.07 110.971 141.428C114.613 137.786 117.328 134.002 119.116 130.077C120.889 126.279 121.783 122.46 121.799 118.62C121.871 114.835 121.114 111.15 119.526 107.563C117.939 103.976 115.599 100.635 112.505 97.5419L102.887 87.9242C99.794 84.8308 96.4538 82.4904 92.8668 80.903C89.2797 79.3156 85.5659 78.5298 81.7254 78.5458C77.9411 78.6179 74.1221 79.5123 70.2682 81.2289C66.3992 83.0731 62.6436 85.8164 59.0014 89.4586ZM54.53 84.9872C59.4577 80.0595 64.6599 76.2633 70.1367 73.5987C75.6135 70.9341 81.1377 69.4595 86.7092 69.175C92.2093 68.9618 97.601 69.9257 102.884 72.0666C108.224 74.2638 113.256 77.7247 117.98 82.4492C122.705 87.1737 126.137 92.1775 128.278 97.4608C130.476 102.8 131.468 108.22 131.254 113.72C130.97 119.292 129.495 124.816 126.831 130.293C124.166 135.769 120.37 140.972 115.442 145.899C110.514 150.827 105.312 154.623 99.8354 157.288C94.3586 159.952 88.8702 161.391 83.3701 161.604C77.7986 161.889 72.3431 160.933 67.0036 158.736C61.7203 156.595 56.7165 153.162 51.992 148.437C47.2675 143.713 43.8066 138.681 41.6094 133.341C39.4685 128.058 38.5403 122.631 38.8249 117.059C39.038 111.559 40.4769 106.071 43.1415 100.594C45.8061 95.1171 49.6023 89.9149 54.53 84.9872Z" fill="#0C1F13"/>
<path d="M285.075 103.084L258.429 22.6842H273.934L297.71 95.3888H290.014L314.709 22.6842H328.491L352.497 95.3888H345.031L369.381 22.6842H383.623L356.976 103.084H341.126L319.188 37.5008H323.323L301.041 103.084H285.075Z" fill="black"/>
<path d="M455.886 22.6842H470.817V103.084H455.886V22.6842ZM414.308 103.084H399.376V22.6842H414.308V103.084ZM457.035 68.6271H413.044V55.8779H457.035V68.6271Z" fill="black"/>
<path d="M533.624 104.233C527.345 104.233 521.564 103.199 516.28 101.132C510.997 99.0642 506.402 96.1928 502.497 92.5174C498.592 88.7654 495.568 84.4008 493.424 79.4236C491.28 74.3699 490.208 68.8568 490.208 62.8842C490.208 56.9116 491.28 51.4368 493.424 46.4596C495.568 41.4059 498.592 37.0414 502.497 33.3659C506.402 29.6139 510.997 26.7042 516.28 24.6368C521.564 22.5694 527.306 21.5356 533.509 21.5356C539.788 21.5356 545.53 22.5694 550.737 24.6368C556.021 26.7042 560.615 29.6139 564.52 33.3659C568.425 37.0414 571.45 41.4059 573.594 46.4596C575.738 51.4368 576.81 56.9116 576.81 62.8842C576.81 68.8568 575.738 74.3699 573.594 79.4236C571.45 84.4774 568.425 88.8419 564.52 92.5174C560.615 96.1928 556.021 99.0642 550.737 101.132C545.53 103.199 539.826 104.233 533.624 104.233ZM533.509 91.1391C537.567 91.1391 541.319 90.4499 544.765 89.0717C548.21 87.6934 551.197 85.7408 553.724 83.2139C556.25 80.6105 558.203 77.6242 559.581 74.2551C561.036 70.8094 561.764 67.0191 561.764 62.8842C561.764 58.7494 561.036 54.9974 559.581 51.6282C558.203 48.1825 556.25 45.1962 553.724 42.6694C551.197 40.0659 548.21 38.0751 544.765 36.6968C541.319 35.3185 537.567 34.6294 533.509 34.6294C529.45 34.6294 525.698 35.3185 522.253 36.6968C518.884 38.0751 515.897 40.0659 513.294 42.6694C510.767 45.1962 508.776 48.1825 507.321 51.6282C505.943 54.9974 505.254 58.7494 505.254 62.8842C505.254 66.9425 505.943 70.6945 507.321 74.1402C508.776 77.5859 510.767 80.6105 513.294 83.2139C515.821 85.7408 518.807 87.6934 522.253 89.0717C525.698 90.4499 529.45 91.1391 533.509 91.1391Z" fill="black"/>
<path d="M633.899 104.233C627.62 104.233 621.839 103.199 616.556 101.132C611.272 99.0642 606.678 96.1928 602.773 92.5174C598.868 88.7654 595.843 84.4008 593.699 79.4236C591.555 74.3699 590.483 68.8568 590.483 62.8842C590.483 56.9116 591.555 51.4368 593.699 46.4596C595.843 41.4059 598.868 37.0414 602.773 33.3659C606.678 29.6139 611.272 26.7042 616.556 24.6368C621.839 22.5694 627.582 21.5356 633.784 21.5356C640.063 21.5356 645.806 22.5694 651.013 24.6368C656.296 26.7042 660.891 29.6139 664.796 33.3659C668.701 37.0414 671.726 41.4059 673.87 46.4596C676.014 51.4368 677.086 56.9116 677.086 62.8842C677.086 68.8568 676.014 74.3699 673.87 79.4236C671.726 84.4774 668.701 88.8419 664.796 92.5174C660.891 96.1928 656.296 99.0642 651.013 101.132C645.806 103.199 640.102 104.233 633.899 104.233ZM633.784 91.1391C637.843 91.1391 641.595 90.4499 645.04 89.0717C648.486 87.6934 651.472 85.7408 653.999 83.2139C656.526 80.6105 658.479 77.6242 659.857 74.2551C661.312 70.8094 662.039 67.0191 662.039 62.8842C662.039 58.7494 661.312 54.9974 659.857 51.6282C658.479 48.1825 656.526 45.1962 653.999 42.6694C651.472 40.0659 648.486 38.0751 645.04 36.6968C641.595 35.3185 637.843 34.6294 633.784 34.6294C629.726 34.6294 625.974 35.3185 622.528 36.6968C619.159 38.0751 616.173 40.0659 613.57 42.6694C611.043 45.1962 609.052 48.1825 607.597 51.6282C606.219 54.9974 605.53 58.7494 605.53 62.8842C605.53 66.9425 606.219 70.6945 607.597 74.1402C609.052 77.5859 611.043 80.6105 613.57 83.2139C616.096 85.7408 619.083 87.6934 622.528 89.0717C625.974 90.4499 629.726 91.1391 633.784 91.1391Z" fill="black"/>
<path d="M696.502 103.084V22.6842H729.581C736.702 22.6842 742.789 23.8328 747.843 26.1299C752.973 28.4271 756.917 31.7196 759.673 36.0076C762.43 40.2956 763.808 45.3876 763.808 51.2836C763.808 57.1796 762.43 62.2716 759.673 66.5596C756.917 70.8476 752.973 74.1402 747.843 76.4374C742.789 78.7345 736.702 79.8831 729.581 79.8831H704.772L711.433 72.8768V103.084H696.502ZM711.433 74.4848L704.772 67.2488H728.892C735.477 67.2488 740.416 65.8705 743.708 63.1139C747.077 60.2808 748.762 56.3374 748.762 51.2836C748.762 46.1534 747.077 42.2099 743.708 39.4534C740.416 36.6968 735.477 35.3185 728.892 35.3185H704.772L711.433 27.9676V74.4848Z" fill="black"/>
<path d="M258.429 167.29V127.204H283.697V131.397H263.253V144.892H281.974V149.085H263.253V167.29H258.429Z" fill="#3B6470"/>
<path d="M310.35 131.11C309.01 131.11 308.072 130.842 307.536 130.306C307 129.731 306.732 129.023 306.732 128.181V127.262C306.732 126.42 307 125.73 307.536 125.194C308.072 124.62 309.01 124.333 310.35 124.333C311.69 124.333 312.628 124.62 313.164 125.194C313.7 125.73 313.968 126.42 313.968 127.262V128.181C313.968 129.023 313.7 129.731 313.164 130.306C312.628 130.842 311.69 131.11 310.35 131.11ZM297.371 163.384H308.053V141.562H297.371V137.656H312.647V163.384H322.64V167.29H297.371V163.384Z" fill="#3B6470"/>
<path d="M334.936 167.29V137.656H339.53V142.48H339.76C340.066 141.753 340.449 141.064 340.909 140.413C341.368 139.724 341.923 139.13 342.574 138.633C343.263 138.135 344.067 137.733 344.986 137.427C345.905 137.12 346.977 136.967 348.202 136.967C351.303 136.967 353.792 137.963 355.668 139.954C357.544 141.906 358.482 144.682 358.482 148.281V167.29H353.887V149.085C353.887 146.366 353.294 144.356 352.107 143.055C350.92 141.715 349.178 141.045 346.881 141.045C345.962 141.045 345.063 141.16 344.182 141.389C343.301 141.619 342.517 141.964 341.827 142.423C341.138 142.882 340.583 143.476 340.162 144.203C339.741 144.931 339.53 145.773 339.53 146.73V167.29H334.936Z" fill="#3B6470"/>
<path d="M391.739 162.466H391.509C389.595 166.141 386.551 167.979 382.378 167.979C378.741 167.979 375.889 166.62 373.821 163.901C371.792 161.183 370.778 157.374 370.778 152.473C370.778 147.572 371.792 143.763 373.821 141.045C375.889 138.326 378.741 136.967 382.378 136.967C386.551 136.967 389.595 138.805 391.509 142.48H391.739V124.792H396.333V167.29H391.739V162.466ZM384.159 163.901C385.192 163.901 386.169 163.767 387.087 163.499C388.006 163.231 388.81 162.848 389.499 162.351C390.189 161.815 390.725 161.183 391.107 160.456C391.529 159.69 391.739 158.809 391.739 157.814V147.132C391.739 146.137 391.529 145.275 391.107 144.548C390.725 143.782 390.189 143.15 389.499 142.653C388.81 142.117 388.006 141.715 387.087 141.447C386.169 141.179 385.192 141.045 384.159 141.045C381.479 141.045 379.392 141.868 377.899 143.514C376.444 145.122 375.717 147.266 375.717 149.946V155C375.717 157.68 376.444 159.843 377.899 161.489C379.392 163.097 381.479 163.901 384.159 163.901Z" fill="#3B6470"/>
<path d="M424.422 131.11C423.082 131.11 422.144 130.842 421.608 130.306C421.072 129.731 420.804 129.023 420.804 128.181V127.262C420.804 126.42 421.072 125.73 421.608 125.194C422.144 124.62 423.082 124.333 424.422 124.333C425.762 124.333 426.7 124.62 427.236 125.194C427.772 125.73 428.04 126.42 428.04 127.262V128.181C428.04 129.023 427.772 129.731 427.236 130.306C426.7 130.842 425.762 131.11 424.422 131.11ZM411.443 163.384H422.125V141.562H411.443V137.656H426.719V163.384H436.712V167.29H411.443V163.384Z" fill="#3B6470"/>
<path d="M449.008 167.29V137.656H453.602V142.48H453.832C454.138 141.753 454.521 141.064 454.981 140.413C455.44 139.724 455.995 139.13 456.646 138.633C457.335 138.135 458.139 137.733 459.058 137.427C459.977 137.12 461.049 136.967 462.274 136.967C465.375 136.967 467.864 137.963 469.74 139.954C471.616 141.906 472.554 144.682 472.554 148.281V167.29H467.959V149.085C467.959 146.366 467.366 144.356 466.179 143.055C464.992 141.715 463.25 141.045 460.953 141.045C460.034 141.045 459.135 141.16 458.254 141.389C457.373 141.619 456.589 141.964 455.899 142.423C455.21 142.882 454.655 143.476 454.234 144.203C453.813 144.931 453.602 145.773 453.602 146.73V167.29H449.008Z" fill="#3B6470"/>
<path d="M513.621 170.678C513.621 173.664 512.377 175.866 509.889 177.282C507.4 178.737 503.667 179.464 498.69 179.464C493.904 179.464 490.459 178.833 488.353 177.569C486.285 176.306 485.252 174.487 485.252 172.114C485.252 170.506 485.673 169.261 486.515 168.381C487.357 167.5 488.544 166.849 490.076 166.428V165.739C489.233 165.318 488.583 164.782 488.123 164.131C487.664 163.48 487.434 162.657 487.434 161.662C487.434 160.13 487.932 158.982 488.927 158.216C489.961 157.45 491.243 156.876 492.775 156.493V156.263C490.937 155.459 489.501 154.272 488.468 152.703C487.472 151.133 486.975 149.295 486.975 147.19C486.975 145.696 487.243 144.318 487.779 143.055C488.315 141.791 489.08 140.719 490.076 139.839C491.109 138.92 492.335 138.212 493.751 137.714C495.168 137.216 496.737 136.967 498.46 136.967C500.681 136.967 502.633 137.369 504.318 138.173V137.656C504.318 136.508 504.586 135.551 505.122 134.785C505.658 134.019 506.577 133.636 507.879 133.636H513.334V137.656H506.673V139.666C507.745 140.585 508.568 141.676 509.142 142.94C509.716 144.203 510.003 145.62 510.003 147.19C510.003 148.683 509.716 150.061 509.142 151.324C508.606 152.588 507.84 153.679 506.845 154.598C505.849 155.478 504.624 156.168 503.169 156.665C501.753 157.163 500.183 157.412 498.46 157.412C497.963 157.412 497.484 157.393 497.025 157.354C496.565 157.316 496.106 157.259 495.646 157.182C495.187 157.259 494.708 157.393 494.211 157.584C493.713 157.737 493.253 157.967 492.832 158.273C492.411 158.541 492.067 158.867 491.799 159.25C491.531 159.632 491.397 160.073 491.397 160.57C491.397 161.451 491.837 162.044 492.717 162.351C493.598 162.619 494.747 162.753 496.163 162.753H502.71C506.539 162.753 509.314 163.48 511.037 164.935C512.76 166.352 513.621 168.266 513.621 170.678ZM509.314 170.908C509.314 169.721 508.836 168.764 507.879 168.036C506.921 167.347 505.256 167.002 502.882 167.002H492.603C490.612 167.806 489.616 169.146 489.616 171.022C489.616 172.324 490.133 173.434 491.167 174.353C492.201 175.31 493.923 175.789 496.335 175.789H500.815C503.495 175.789 505.581 175.368 507.075 174.526C508.568 173.722 509.314 172.516 509.314 170.908ZM498.46 153.851C500.757 153.851 502.442 153.315 503.514 152.243C504.624 151.171 505.179 149.755 505.179 147.994V146.328C505.179 144.567 504.624 143.17 503.514 142.136C502.442 141.064 500.757 140.528 498.46 140.528C496.163 140.528 494.479 141.064 493.407 142.136C492.335 143.17 491.799 144.567 491.799 146.328V147.994C491.799 149.755 492.335 151.171 493.407 152.243C494.479 153.315 496.163 153.851 498.46 153.851Z" fill="#3B6470"/>
<path d="M559.175 137.656H563.252L566.641 163.27H567.157L572.211 137.656H577.265L582.319 163.27H582.835L586.224 137.656H590.186L585.649 167.29H579.677L574.968 142.48H574.508L569.684 167.29H563.712L559.175 137.656Z" fill="#3B6470"/>
<path d="M601.104 124.792H605.698V142.48H605.928C606.234 141.753 606.617 141.064 607.077 140.413C607.536 139.724 608.091 139.13 608.742 138.633C609.431 138.135 610.235 137.733 611.154 137.427C612.073 137.12 613.145 136.967 614.37 136.967C617.471 136.967 619.96 137.963 621.836 139.954C623.712 141.906 624.65 144.682 624.65 148.281V167.29H620.055V149.085C620.055 146.366 619.462 144.356 618.275 143.055C617.088 141.715 615.346 141.045 613.049 141.045C612.13 141.045 611.231 141.16 610.35 141.389C609.469 141.619 608.685 141.964 607.995 142.423C607.306 142.882 606.751 143.476 606.33 144.203C605.909 144.931 605.698 145.773 605.698 146.73V167.29H601.104V124.792Z" fill="#3B6470"/>
<path d="M650.729 167.979C648.661 167.979 646.785 167.615 645.101 166.888C643.454 166.16 642.038 165.126 640.851 163.786C639.702 162.408 638.822 160.781 638.209 158.905C637.597 156.991 637.29 154.847 637.29 152.473C637.29 150.138 637.597 148.013 638.209 146.098C638.822 144.184 639.702 142.557 640.851 141.217C642.038 139.839 643.454 138.786 645.101 138.058C646.785 137.331 648.661 136.967 650.729 136.967C652.796 136.967 654.653 137.331 656.299 138.058C657.984 138.786 659.4 139.839 660.549 141.217C661.736 142.557 662.635 144.184 663.248 146.098C663.861 148.013 664.167 150.138 664.167 152.473C664.167 154.847 663.861 156.991 663.248 158.905C662.635 160.781 661.736 162.408 660.549 163.786C659.4 165.126 657.984 166.16 656.299 166.888C654.653 167.615 652.796 167.979 650.729 167.979ZM650.729 164.016C653.294 164.016 655.361 163.25 656.931 161.719C658.501 160.188 659.285 157.814 659.285 154.598V150.348C659.285 147.132 658.501 144.758 656.931 143.227C655.361 141.696 653.294 140.93 650.729 140.93C648.163 140.93 646.096 141.696 644.526 143.227C642.957 144.758 642.172 147.132 642.172 150.348V154.598C642.172 157.814 642.957 160.188 644.526 161.719C646.096 163.25 648.163 164.016 650.729 164.016Z" fill="#3B6470"/>
<path d="M728.614 131.11C727.274 131.11 726.336 130.842 725.8 130.306C725.264 129.731 724.996 129.023 724.996 128.181V127.262C724.996 126.42 725.264 125.73 725.8 125.194C726.336 124.62 727.274 124.333 728.614 124.333C729.954 124.333 730.892 124.62 731.428 125.194C731.964 125.73 732.232 126.42 732.232 127.262V128.181C732.232 129.023 731.964 129.731 731.428 130.306C730.892 130.842 729.954 131.11 728.614 131.11ZM715.635 163.384H726.317V141.562H715.635V137.656H730.911V163.384H740.904V167.29H715.635V163.384Z" fill="#3B6470"/>
<path d="M753.2 167.29V137.656H757.794V142.48H758.024C758.33 141.753 758.713 141.064 759.173 140.413C759.632 139.724 760.187 139.13 760.838 138.633C761.527 138.135 762.331 137.733 763.25 137.427C764.169 137.12 765.241 136.967 766.466 136.967C769.567 136.967 772.056 137.963 773.932 139.954C775.808 141.906 776.746 144.682 776.746 148.281V167.29H772.151V149.085C772.151 146.366 771.558 144.356 770.371 143.055C769.184 141.715 767.442 141.045 765.145 141.045C764.226 141.045 763.327 141.16 762.446 141.389C761.565 141.619 760.781 141.964 760.091 142.423C759.402 142.882 758.847 143.476 758.426 144.203C758.005 144.931 757.794 145.773 757.794 146.73V167.29H753.2Z" fill="#3B6470"/>
<path d="M828.789 167.29L825.63 127.204H829.937L831.603 150.176L832.464 162.293H832.923L838.207 137.656H843.605L848.889 162.293H849.348L850.209 150.176L851.875 127.204H856.067L852.909 167.29H845.96L841.078 143.342H840.619L835.737 167.29H828.789Z" fill="#3B6470"/>
<path d="M886.683 149.085H871.062V167.29H866.238V127.204H871.062V144.892H886.683V127.204H891.507V167.29H886.683V149.085Z" fill="#3B6470"/>
<path d="M916.897 167.979C914.446 167.979 912.341 167.519 910.579 166.6C908.818 165.643 907.363 164.284 906.215 162.523C905.066 160.762 904.224 158.599 903.688 156.034C903.152 153.468 902.884 150.54 902.884 147.247C902.884 143.993 903.152 141.083 903.688 138.518C904.224 135.914 905.066 133.732 906.215 131.971C907.363 130.21 908.818 128.87 910.579 127.951C912.341 126.994 914.446 126.515 916.897 126.515C919.347 126.515 921.453 126.994 923.214 127.951C924.975 128.87 926.43 130.21 927.578 131.971C928.727 133.732 929.569 135.914 930.105 138.518C930.641 141.083 930.909 143.993 930.909 147.247C930.909 150.54 930.641 153.468 930.105 156.034C929.569 158.599 928.727 160.762 927.578 162.523C926.43 164.284 924.975 165.643 923.214 166.6C921.453 167.519 919.347 167.979 916.897 167.979ZM916.897 163.786C918.505 163.786 919.864 163.48 920.974 162.868C922.084 162.217 923.003 161.317 923.731 160.168C924.458 159.02 924.975 157.642 925.281 156.034C925.626 154.387 925.798 152.55 925.798 150.52V143.974C925.798 141.983 925.626 140.164 925.281 138.518C924.975 136.872 924.458 135.474 923.731 134.326C923.003 133.177 922.084 132.296 920.974 131.684C919.864 131.033 918.505 130.708 916.897 130.708C915.289 130.708 913.929 131.033 912.819 131.684C911.709 132.296 910.79 133.177 910.062 134.326C909.335 135.474 908.799 136.872 908.455 138.518C908.148 140.164 907.995 141.983 907.995 143.974V150.52C907.995 152.55 908.148 154.387 908.455 156.034C908.799 157.642 909.335 159.02 910.062 160.168C910.79 161.317 911.709 162.217 912.819 162.868C913.929 163.48 915.289 163.786 916.897 163.786Z" fill="#3B6470"/>
</svg>
